<?xml version="1.0" encoding="UTF-8" standalone="no"?>
<!DOCTYPE svg PUBLIC "-//W3C//DTD SVG 1.1//EN" "http://www.w3.org/Graphics/SVG/1.1/DTD/svg11.dtd">
<svg width="100%" height="100%" viewBox="0 0 3000 2000" version="1.1" xmlns="http://www.w3.org/2000/svg" xmlns:xlink="http://www.w3.org/1999/xlink" xml:space="preserve" xmlns:serif="http://www.serif.com/" style="fill-rule:evenodd;clip-rule:evenodd;stroke-linecap:round;stroke-linejoin:round;stroke-miterlimit:1.5;">
    <g transform="matrix(4.470374,0,0,4.470374,-4436.61864,-2618.664457)">
        <g transform="matrix(56.669378,0,0,56.669378,1183.937824,831.606218)">
            <path d="M0.44,0.02C0.69,0.02 0.85,-0.09 0.85,-0.26C0.85,-0.42 0.69,-0.53 0.44,-0.53C0.19,-0.53 0.02,-0.42 0.02,-0.26C0.02,-0.09 0.19,0.02 0.44,0.02ZM0.44,-0.12C0.33,-0.12 0.26,-0.18 0.26,-0.26C0.26,-0.34 0.33,-0.39 0.44,-0.39C0.55,-0.39 0.61,-0.34 0.61,-0.26C0.61,-0.18 0.55,-0.12 0.44,-0.12Z" style="fill-rule:nonzero;"/>
        </g>
        <g transform="matrix(56.669378,0,0,56.669378,1233.580199,831.606218)">
            <path d="M0.49,-0.53C0.4,-0.53 0.31,-0.48 0.27,-0.39L0.27,-0.39L0.24,-0.52L0.04,-0.52L0.04,-0L0.28,-0L0.28,-0.23C0.28,-0.33 0.32,-0.39 0.39,-0.39C0.43,-0.39 0.47,-0.34 0.47,-0.26L0.69,-0.3C0.68,-0.44 0.6,-0.53 0.49,-0.53Z" style="fill-rule:nonzero;"/>
        </g>
        <g transform="matrix(56.669378,0,0,56.669378,1273.248763,831.606218)">
            <path d="M0.56,0.02C0.74,0.02 0.86,-0.09 0.86,-0.26C0.86,-0.42 0.74,-0.53 0.56,-0.53C0.43,-0.53 0.32,-0.47 0.28,-0.38L0.28,-0.38L0.28,-0.75L0.04,-0.75L0.04,-0L0.25,-0L0.28,-0.14L0.28,-0.14C0.32,-0.04 0.43,0.02 0.56,0.02ZM0.45,-0.14C0.34,-0.14 0.27,-0.19 0.27,-0.26C0.27,-0.33 0.34,-0.38 0.45,-0.38C0.55,-0.38 0.62,-0.33 0.62,-0.26C0.62,-0.19 0.55,-0.14 0.45,-0.14Z" style="fill-rule:nonzero;"/>
        </g>
        <g transform="matrix(56.669378,0,0,56.669378,1323.457831,831.606218)">
            <path d="M0.16,-0.57C0.24,-0.57 0.29,-0.62 0.29,-0.69C0.29,-0.76 0.24,-0.8 0.16,-0.8C0.09,-0.8 0.03,-0.76 0.03,-0.69C0.03,-0.62 0.09,-0.57 0.16,-0.57ZM0.28,-0L0.28,-0.52L0.04,-0.52L0.04,-0L0.28,-0Z" style="fill-rule:nonzero;"/>
        </g>
        <g transform="matrix(56.669378,0,0,56.669378,1341.875379,831.606218)">
            <path d="M0.42,0.02C0.55,0.02 0.64,-0.01 0.72,-0.08L0.67,-0.22C0.61,-0.17 0.56,-0.14 0.49,-0.14C0.42,-0.14 0.39,-0.18 0.39,-0.24L0.39,-0.37L0.7,-0.37L0.7,-0.52L0.39,-0.52L0.39,-0.7L0.15,-0.65L0.15,-0.52L0.01,-0.52L0.01,-0.37L0.15,-0.37L0.15,-0.18C0.15,-0.06 0.25,0.02 0.42,0.02Z" style="fill-rule:nonzero;"/>
        </g>
        <g transform="matrix(56.669378,0,0,56.669378,1383.300694,831.606218)">
            <path d="M0.47,0.02C0.61,0.02 0.74,-0.01 0.81,-0.06L0.75,-0.17C0.7,-0.14 0.59,-0.12 0.49,-0.12C0.39,-0.12 0.3,-0.14 0.27,-0.21L0.82,-0.21C0.82,-0.22 0.82,-0.24 0.82,-0.26C0.82,-0.42 0.67,-0.53 0.43,-0.53C0.19,-0.53 0.02,-0.42 0.02,-0.26C0.02,-0.09 0.2,0.02 0.47,0.02ZM0.27,-0.3C0.28,-0.36 0.34,-0.4 0.43,-0.4C0.51,-0.4 0.58,-0.36 0.58,-0.3L0.27,-0.3Z" style="fill-rule:nonzero;"/>
        </g>
        <g transform="matrix(56.669378,0,0,56.669378,1431.639673,831.606218)">
            <path d="M0.49,-0.53C0.4,-0.53 0.31,-0.48 0.27,-0.39L0.27,-0.39L0.24,-0.52L0.04,-0.52L0.04,-0L0.28,-0L0.28,-0.23C0.28,-0.33 0.32,-0.39 0.39,-0.39C0.43,-0.39 0.47,-0.34 0.47,-0.26L0.69,-0.3C0.68,-0.44 0.6,-0.53 0.49,-0.53Z" style="fill-rule:nonzero;"/>
        </g>
    </g>
    <g transform="matrix(3.105742,0,0,5.285766,-4583.613514,-3335.766305)">
        <path d="M1958.83,640.54C2212.06,640.54 2417.66,721.08 2417.66,820.27C2417.66,919.47 2212.06,1000 1958.83,1000C1705.59,1000 1500,919.47 1500,820.27C1500,721.08 1705.59,640.54 1958.83,640.54ZM1958.83,642.51C1807.83,642.51 1673.84,671.27 1590.83,715.61C1535.9,744.96 1503.35,781.13 1503.35,820.27C1503.35,859.42 1535.9,895.58 1590.83,924.93C1673.84,969.27 1807.83,998.03 1958.83,998.03C2109.83,998.03 2243.82,969.27 2326.82,924.93C2381.75,895.58 2414.3,859.42 2414.3,820.27C2414.3,781.13 2381.75,744.96 2326.82,715.61C2243.82,671.27 2109.83,642.51 1958.83,642.51Z"/>
    </g>
    <g transform="matrix(2.766883,0,0,4.709051,-3919.847432,-2862.702951)">
        <ellipse cx="1958.83" cy="820.27" rx="458.83" ry="179.73" style="fill:none;stroke:black;stroke-width:2.7px;"/>
    </g>
    <g transform="matrix(2.464997,0,0,4.19526,-3328.503013,-2441.254218)">
        <ellipse cx="1958.83" cy="820.27" rx="458.83" ry="179.73" style="fill:none;stroke:black;stroke-width:3.03px;"/>
    </g>
    <g transform="matrix(2.196048,0,0,3.737527,-2801.678533,-2065.78858)">
        <ellipse cx="1958.83" cy="820.27" rx="458.83" ry="179.73" style="fill:none;stroke:black;stroke-width:3.4px;"/>
    </g>
    <g transform="matrix(1.956443,0,0,3.329736,-2332.3344,-1731.288949)">
        <ellipse cx="1958.83" cy="820.27" rx="458.83" ry="179.73" style="fill:none;stroke:black;stroke-width:3.81px;"/>
    </g>
    <g transform="matrix(1.742981,0,0,2.966437,-1914.199096,-1433.285639)">
        <ellipse cx="1958.83" cy="820.27" rx="458.83" ry="179.73" style="fill:none;stroke:black;stroke-width:4.28px;"/>
    </g>
</svg>
