<?xml version="1.0" encoding="UTF-8" standalone="no"?>
<!DOCTYPE svg PUBLIC "-//W3C//DTD SVG 1.1//EN" "http://www.w3.org/Graphics/SVG/1.1/DTD/svg11.dtd">
<svg width="100%" height="100%" viewBox="0 0 3000 2000" version="1.1" xmlns="http://www.w3.org/2000/svg" xmlns:xlink="http://www.w3.org/1999/xlink" xml:space="preserve" xmlns:serif="http://www.serif.com/" style="fill-rule:evenodd;clip-rule:evenodd;stroke-linejoin:round;stroke-miterlimit:2;">
    <g transform="matrix(1,0,-0.176327,1,-491.467094,135.456887)">
        <g transform="matrix(266.666667,0,0,266.666667,900.728727,437.60978)">
            <path d="M0.41,0.02C0.61,0.02 0.76,-0.04 0.76,-0.17C0.76,-0.27 0.67,-0.32 0.47,-0.33L0.35,-0.34C0.29,-0.35 0.26,-0.36 0.26,-0.38C0.26,-0.4 0.32,-0.41 0.4,-0.41C0.5,-0.41 0.59,-0.39 0.66,-0.36L0.71,-0.47C0.62,-0.51 0.51,-0.53 0.41,-0.53C0.2,-0.53 0.06,-0.48 0.06,-0.35C0.06,-0.25 0.14,-0.21 0.32,-0.2L0.45,-0.19C0.52,-0.18 0.55,-0.17 0.55,-0.15C0.55,-0.13 0.5,-0.11 0.39,-0.11C0.28,-0.11 0.14,-0.14 0.07,-0.19L0.01,-0.07C0.1,-0.02 0.26,0.02 0.41,0.02Z" style="fill-rule:nonzero;"/>
        </g>
        <g transform="matrix(266.666667,0,0,266.666667,1107.395393,437.60978)">
            <path d="M0.55,-0.53C0.42,-0.53 0.32,-0.48 0.27,-0.39L0.27,-0.39L0.25,-0.52L0.04,-0.52L0.04,-0L0.28,-0L0.28,-0.24C0.28,-0.34 0.34,-0.4 0.44,-0.4C0.53,-0.4 0.58,-0.35 0.58,-0.27L0.58,-0L0.81,-0L0.82,-0.29C0.82,-0.44 0.71,-0.53 0.55,-0.53Z" style="fill-rule:nonzero;"/>
        </g>
        <g transform="matrix(266.666667,0,0,266.666667,1332.995393,437.60978)">
            <path d="M0.47,0.02C0.61,0.02 0.74,-0.01 0.81,-0.06L0.75,-0.17C0.7,-0.14 0.59,-0.12 0.49,-0.12C0.39,-0.12 0.3,-0.14 0.27,-0.21L0.82,-0.21C0.82,-0.22 0.82,-0.24 0.82,-0.26C0.82,-0.42 0.67,-0.53 0.43,-0.53C0.19,-0.53 0.02,-0.42 0.02,-0.26C0.02,-0.09 0.2,0.02 0.47,0.02ZM0.27,-0.3C0.28,-0.36 0.34,-0.4 0.43,-0.4C0.51,-0.4 0.58,-0.36 0.58,-0.3L0.27,-0.3Z" style="fill-rule:nonzero;"/>
        </g>
        <g transform="matrix(266.666667,0,0,266.666667,1560.46206,437.60978)">
            <path d="M0.16,-0.57C0.24,-0.57 0.29,-0.62 0.29,-0.69C0.29,-0.76 0.24,-0.8 0.16,-0.8C0.09,-0.8 0.03,-0.76 0.03,-0.69C0.03,-0.62 0.09,-0.57 0.16,-0.57ZM0.04,0.23C0.19,0.23 0.28,0.15 0.28,0.03L0.28,-0.52L0.04,-0.52L0.04,0C0.04,0.05 0.01,0.08 -0.03,0.08C-0.06,0.08 -0.09,0.07 -0.11,0.07L-0.13,0.21C-0.08,0.22 -0.02,0.23 0.04,0.23Z" style="fill-rule:nonzero;"/>
        </g>
        <g transform="matrix(266.666667,0,0,266.666667,1647.395393,437.60978)">
            <path d="M0.28,-0L0.28,-0.15L0.35,-0.2L0.5,-0L0.77,-0L0.51,-0.32L0.77,-0.52L0.48,-0.52L0.28,-0.37L0.28,-0.37L0.28,-0.75L0.04,-0.75L0.04,-0L0.28,-0Z" style="fill-rule:nonzero;"/>
        </g>
        <g transform="matrix(266.666667,0,0,266.666667,1846.86206,437.60978)">
            <path d="M0.41,0.02C0.61,0.02 0.76,-0.04 0.76,-0.17C0.76,-0.27 0.67,-0.32 0.47,-0.33L0.35,-0.34C0.29,-0.35 0.26,-0.36 0.26,-0.38C0.26,-0.4 0.32,-0.41 0.4,-0.41C0.5,-0.41 0.59,-0.39 0.66,-0.36L0.71,-0.47C0.62,-0.51 0.51,-0.53 0.41,-0.53C0.2,-0.53 0.06,-0.48 0.06,-0.35C0.06,-0.25 0.14,-0.21 0.32,-0.2L0.45,-0.19C0.52,-0.18 0.55,-0.17 0.55,-0.15C0.55,-0.13 0.5,-0.11 0.39,-0.11C0.28,-0.11 0.14,-0.14 0.07,-0.19L0.01,-0.07C0.1,-0.02 0.26,0.02 0.41,0.02Z" style="fill-rule:nonzero;"/>
        </g>
        <g transform="matrix(266.666667,0,0,266.666667,2115.928727,437.60978)">
            <path d="M0.41,0.02C0.61,0.02 0.76,-0.04 0.76,-0.17C0.76,-0.27 0.67,-0.32 0.47,-0.33L0.35,-0.34C0.29,-0.35 0.26,-0.36 0.26,-0.38C0.26,-0.4 0.32,-0.41 0.4,-0.41C0.5,-0.41 0.59,-0.39 0.66,-0.36L0.71,-0.47C0.62,-0.51 0.51,-0.53 0.41,-0.53C0.2,-0.53 0.06,-0.48 0.06,-0.35C0.06,-0.25 0.14,-0.21 0.32,-0.2L0.45,-0.19C0.52,-0.18 0.55,-0.17 0.55,-0.15C0.55,-0.13 0.5,-0.11 0.39,-0.11C0.28,-0.11 0.14,-0.14 0.07,-0.19L0.01,-0.07C0.1,-0.02 0.26,0.02 0.41,0.02Z" style="fill-rule:nonzero;"/>
        </g>
        <g transform="matrix(266.666667,0,0,266.666667,2322.595393,437.60978)">
            <path d="M0.55,-0.53C0.42,-0.53 0.32,-0.48 0.27,-0.39L0.27,-0.39L0.25,-0.52L0.04,-0.52L0.04,-0L0.28,-0L0.28,-0.24C0.28,-0.34 0.34,-0.4 0.44,-0.4C0.53,-0.4 0.58,-0.35 0.58,-0.27L0.58,-0L0.81,-0L0.82,-0.29C0.82,-0.44 0.71,-0.53 0.55,-0.53Z" style="fill-rule:nonzero;"/>
        </g>
        <g transform="matrix(266.666667,0,0,266.666667,2548.195393,437.60978)">
            <path d="M0.47,0.02C0.61,0.02 0.74,-0.01 0.81,-0.06L0.75,-0.17C0.7,-0.14 0.59,-0.12 0.49,-0.12C0.39,-0.12 0.3,-0.14 0.27,-0.21L0.82,-0.21C0.82,-0.22 0.82,-0.24 0.82,-0.26C0.82,-0.42 0.67,-0.53 0.43,-0.53C0.19,-0.53 0.02,-0.42 0.02,-0.26C0.02,-0.09 0.2,0.02 0.47,0.02ZM0.27,-0.3C0.28,-0.36 0.34,-0.4 0.43,-0.4C0.51,-0.4 0.58,-0.36 0.58,-0.3L0.27,-0.3Z" style="fill-rule:nonzero;"/>
        </g>
        <g transform="matrix(266.666667,0,0,266.666667,2775.66206,437.60978)">
            <path d="M0.16,-0.57C0.24,-0.57 0.29,-0.62 0.29,-0.69C0.29,-0.76 0.24,-0.8 0.16,-0.8C0.09,-0.8 0.03,-0.76 0.03,-0.69C0.03,-0.62 0.09,-0.57 0.16,-0.57ZM0.04,0.23C0.19,0.23 0.28,0.15 0.28,0.03L0.28,-0.52L0.04,-0.52L0.04,0C0.04,0.05 0.01,0.08 -0.03,0.08C-0.06,0.08 -0.09,0.07 -0.11,0.07L-0.13,0.21C-0.08,0.22 -0.02,0.23 0.04,0.23Z" style="fill-rule:nonzero;"/>
        </g>
        <g transform="matrix(266.666667,0,0,266.666667,2862.595393,437.60978)">
            <path d="M0.28,-0L0.28,-0.15L0.35,-0.2L0.5,-0L0.77,-0L0.51,-0.32L0.77,-0.52L0.48,-0.52L0.28,-0.37L0.28,-0.37L0.28,-0.75L0.04,-0.75L0.04,-0L0.28,-0Z" style="fill-rule:nonzero;"/>
        </g>
        <g transform="matrix(266.666667,0,0,266.666667,3062.06206,437.60978)">
            <path d="M0.41,0.02C0.61,0.02 0.76,-0.04 0.76,-0.17C0.76,-0.27 0.67,-0.32 0.47,-0.33L0.35,-0.34C0.29,-0.35 0.26,-0.36 0.26,-0.38C0.26,-0.4 0.32,-0.41 0.4,-0.41C0.5,-0.41 0.59,-0.39 0.66,-0.36L0.71,-0.47C0.62,-0.51 0.51,-0.53 0.41,-0.53C0.2,-0.53 0.06,-0.48 0.06,-0.35C0.06,-0.25 0.14,-0.21 0.32,-0.2L0.45,-0.19C0.52,-0.18 0.55,-0.17 0.55,-0.15C0.55,-0.13 0.5,-0.11 0.39,-0.11C0.28,-0.11 0.14,-0.14 0.07,-0.19L0.01,-0.07C0.1,-0.02 0.26,0.02 0.41,0.02Z" style="fill-rule:nonzero;"/>
        </g>
        <g transform="matrix(266.666667,0,0,266.666667,3331.128727,437.60978)">
            <path d="M0.41,0.02C0.61,0.02 0.76,-0.04 0.76,-0.17C0.76,-0.27 0.67,-0.32 0.47,-0.33L0.35,-0.34C0.29,-0.35 0.26,-0.36 0.26,-0.38C0.26,-0.4 0.32,-0.41 0.4,-0.41C0.5,-0.41 0.59,-0.39 0.66,-0.36L0.71,-0.47C0.62,-0.51 0.51,-0.53 0.41,-0.53C0.2,-0.53 0.06,-0.48 0.06,-0.35C0.06,-0.25 0.14,-0.21 0.32,-0.2L0.45,-0.19C0.52,-0.18 0.55,-0.17 0.55,-0.15C0.55,-0.13 0.5,-0.11 0.39,-0.11C0.28,-0.11 0.14,-0.14 0.07,-0.19L0.01,-0.07C0.1,-0.02 0.26,0.02 0.41,0.02Z" style="fill-rule:nonzero;"/>
        </g>
        <g transform="matrix(266.666667,0,0,266.666667,3537.795393,437.60978)">
            <path d="M0.55,-0.53C0.42,-0.53 0.32,-0.48 0.27,-0.39L0.27,-0.39L0.25,-0.52L0.04,-0.52L0.04,-0L0.28,-0L0.28,-0.24C0.28,-0.34 0.34,-0.4 0.44,-0.4C0.53,-0.4 0.58,-0.35 0.58,-0.27L0.58,-0L0.81,-0L0.82,-0.29C0.82,-0.44 0.71,-0.53 0.55,-0.53Z" style="fill-rule:nonzero;"/>
        </g>
        <g transform="matrix(266.666667,0,0,266.666667,3763.395393,437.60978)">
            <path d="M0.47,0.02C0.61,0.02 0.74,-0.01 0.81,-0.06L0.75,-0.17C0.7,-0.14 0.59,-0.12 0.49,-0.12C0.39,-0.12 0.3,-0.14 0.27,-0.21L0.82,-0.21C0.82,-0.22 0.82,-0.24 0.82,-0.26C0.82,-0.42 0.67,-0.53 0.43,-0.53C0.19,-0.53 0.02,-0.42 0.02,-0.26C0.02,-0.09 0.2,0.02 0.47,0.02ZM0.27,-0.3C0.28,-0.36 0.34,-0.4 0.43,-0.4C0.51,-0.4 0.58,-0.36 0.58,-0.3L0.27,-0.3Z" style="fill-rule:nonzero;"/>
        </g>
        <g transform="matrix(266.666667,0,0,266.666667,3990.86206,437.60978)">
            <path d="M0.16,-0.57C0.24,-0.57 0.29,-0.62 0.29,-0.69C0.29,-0.76 0.24,-0.8 0.16,-0.8C0.09,-0.8 0.03,-0.76 0.03,-0.69C0.03,-0.62 0.09,-0.57 0.16,-0.57ZM0.04,0.23C0.19,0.23 0.28,0.15 0.28,0.03L0.28,-0.52L0.04,-0.52L0.04,0C0.04,0.05 0.01,0.08 -0.03,0.08C-0.06,0.08 -0.09,0.07 -0.11,0.07L-0.13,0.21C-0.08,0.22 -0.02,0.23 0.04,0.23Z" style="fill-rule:nonzero;"/>
        </g>
        <g transform="matrix(266.666667,0,0,266.666667,4077.795393,437.60978)">
            <path d="M0.28,-0L0.28,-0.15L0.35,-0.2L0.5,-0L0.77,-0L0.51,-0.32L0.77,-0.52L0.48,-0.52L0.28,-0.37L0.28,-0.37L0.28,-0.75L0.04,-0.75L0.04,-0L0.28,-0Z" style="fill-rule:nonzero;"/>
        </g>
        <g transform="matrix(266.666667,0,0,266.666667,4277.26206,437.60978)">
            <path d="M0.41,0.02C0.61,0.02 0.76,-0.04 0.76,-0.17C0.76,-0.27 0.67,-0.32 0.47,-0.33L0.35,-0.34C0.29,-0.35 0.26,-0.36 0.26,-0.38C0.26,-0.4 0.32,-0.41 0.4,-0.41C0.5,-0.41 0.59,-0.39 0.66,-0.36L0.71,-0.47C0.62,-0.51 0.51,-0.53 0.41,-0.53C0.2,-0.53 0.06,-0.48 0.06,-0.35C0.06,-0.25 0.14,-0.21 0.32,-0.2L0.45,-0.19C0.52,-0.18 0.55,-0.17 0.55,-0.15C0.55,-0.13 0.5,-0.11 0.39,-0.11C0.28,-0.11 0.14,-0.14 0.07,-0.19L0.01,-0.07C0.1,-0.02 0.26,0.02 0.41,0.02Z" style="fill-rule:nonzero;"/>
        </g>
    </g>
    <g transform="matrix(1,0,-0.176327,1,-1213.611215,1160.456887)">
        <g transform="matrix(266.666667,0,0,266.666667,900.728727,437.60978)">
            <path d="M0.41,0.02C0.61,0.02 0.76,-0.04 0.76,-0.17C0.76,-0.27 0.67,-0.32 0.47,-0.33L0.35,-0.34C0.29,-0.35 0.26,-0.36 0.26,-0.38C0.26,-0.4 0.32,-0.41 0.4,-0.41C0.5,-0.41 0.59,-0.39 0.66,-0.36L0.71,-0.47C0.62,-0.51 0.51,-0.53 0.41,-0.53C0.2,-0.53 0.06,-0.48 0.06,-0.35C0.06,-0.25 0.14,-0.21 0.32,-0.2L0.45,-0.19C0.52,-0.18 0.55,-0.17 0.55,-0.15C0.55,-0.13 0.5,-0.11 0.39,-0.11C0.28,-0.11 0.14,-0.14 0.07,-0.19L0.01,-0.07C0.1,-0.02 0.26,0.02 0.41,0.02Z" style="fill-rule:nonzero;"/>
        </g>
        <g transform="matrix(266.666667,0,0,266.666667,1107.395393,437.60978)">
            <path d="M0.55,-0.53C0.42,-0.53 0.32,-0.48 0.27,-0.39L0.27,-0.39L0.25,-0.52L0.04,-0.52L0.04,-0L0.28,-0L0.28,-0.24C0.28,-0.34 0.34,-0.4 0.44,-0.4C0.53,-0.4 0.58,-0.35 0.58,-0.27L0.58,-0L0.81,-0L0.82,-0.29C0.82,-0.44 0.71,-0.53 0.55,-0.53Z" style="fill-rule:nonzero;"/>
        </g>
        <g transform="matrix(266.666667,0,0,266.666667,1332.995393,437.60978)">
            <path d="M0.47,0.02C0.61,0.02 0.74,-0.01 0.81,-0.06L0.75,-0.17C0.7,-0.14 0.59,-0.12 0.49,-0.12C0.39,-0.12 0.3,-0.14 0.27,-0.21L0.82,-0.21C0.82,-0.22 0.82,-0.24 0.82,-0.26C0.82,-0.42 0.67,-0.53 0.43,-0.53C0.19,-0.53 0.02,-0.42 0.02,-0.26C0.02,-0.09 0.2,0.02 0.47,0.02ZM0.27,-0.3C0.28,-0.36 0.34,-0.4 0.43,-0.4C0.51,-0.4 0.58,-0.36 0.58,-0.3L0.27,-0.3Z" style="fill-rule:nonzero;"/>
        </g>
        <g transform="matrix(266.666667,0,0,266.666667,1560.46206,437.60978)">
            <path d="M0.16,-0.57C0.24,-0.57 0.29,-0.62 0.29,-0.69C0.29,-0.76 0.24,-0.8 0.16,-0.8C0.09,-0.8 0.03,-0.76 0.03,-0.69C0.03,-0.62 0.09,-0.57 0.16,-0.57ZM0.04,0.23C0.19,0.23 0.28,0.15 0.28,0.03L0.28,-0.52L0.04,-0.52L0.04,0C0.04,0.05 0.01,0.08 -0.03,0.08C-0.06,0.08 -0.09,0.07 -0.11,0.07L-0.13,0.21C-0.08,0.22 -0.02,0.23 0.04,0.23Z" style="fill-rule:nonzero;"/>
        </g>
        <g transform="matrix(266.666667,0,0,266.666667,1647.395393,437.60978)">
            <path d="M0.28,-0L0.28,-0.15L0.35,-0.2L0.5,-0L0.77,-0L0.51,-0.32L0.77,-0.52L0.48,-0.52L0.28,-0.37L0.28,-0.37L0.28,-0.75L0.04,-0.75L0.04,-0L0.28,-0Z" style="fill-rule:nonzero;"/>
        </g>
        <g transform="matrix(266.666667,0,0,266.666667,1846.86206,437.60978)">
            <path d="M0.41,0.02C0.61,0.02 0.76,-0.04 0.76,-0.17C0.76,-0.27 0.67,-0.32 0.47,-0.33L0.35,-0.34C0.29,-0.35 0.26,-0.36 0.26,-0.38C0.26,-0.4 0.32,-0.41 0.4,-0.41C0.5,-0.41 0.59,-0.39 0.66,-0.36L0.71,-0.47C0.62,-0.51 0.51,-0.53 0.41,-0.53C0.2,-0.53 0.06,-0.48 0.06,-0.35C0.06,-0.25 0.14,-0.21 0.32,-0.2L0.45,-0.19C0.52,-0.18 0.55,-0.17 0.55,-0.15C0.55,-0.13 0.5,-0.11 0.39,-0.11C0.28,-0.11 0.14,-0.14 0.07,-0.19L0.01,-0.07C0.1,-0.02 0.26,0.02 0.41,0.02Z" style="fill-rule:nonzero;"/>
        </g>
        <g transform="matrix(266.666667,0,0,266.666667,2115.928727,437.60978)">
            <path d="M0.41,0.02C0.61,0.02 0.76,-0.04 0.76,-0.17C0.76,-0.27 0.67,-0.32 0.47,-0.33L0.35,-0.34C0.29,-0.35 0.26,-0.36 0.26,-0.38C0.26,-0.4 0.32,-0.41 0.4,-0.41C0.5,-0.41 0.59,-0.39 0.66,-0.36L0.71,-0.47C0.62,-0.51 0.51,-0.53 0.41,-0.53C0.2,-0.53 0.06,-0.48 0.06,-0.35C0.06,-0.25 0.14,-0.21 0.32,-0.2L0.45,-0.19C0.52,-0.18 0.55,-0.17 0.55,-0.15C0.55,-0.13 0.5,-0.11 0.39,-0.11C0.28,-0.11 0.14,-0.14 0.07,-0.19L0.01,-0.07C0.1,-0.02 0.26,0.02 0.41,0.02Z" style="fill-rule:nonzero;"/>
        </g>
        <g transform="matrix(266.666667,0,0,266.666667,2322.595393,437.60978)">
            <path d="M0.55,-0.53C0.42,-0.53 0.32,-0.48 0.27,-0.39L0.27,-0.39L0.25,-0.52L0.04,-0.52L0.04,-0L0.28,-0L0.28,-0.24C0.28,-0.34 0.34,-0.4 0.44,-0.4C0.53,-0.4 0.58,-0.35 0.58,-0.27L0.58,-0L0.81,-0L0.82,-0.29C0.82,-0.44 0.71,-0.53 0.55,-0.53Z" style="fill-rule:nonzero;"/>
        </g>
        <g transform="matrix(266.666667,0,0,266.666667,2548.195393,437.60978)">
            <path d="M0.47,0.02C0.61,0.02 0.74,-0.01 0.81,-0.06L0.75,-0.17C0.7,-0.14 0.59,-0.12 0.49,-0.12C0.39,-0.12 0.3,-0.14 0.27,-0.21L0.82,-0.21C0.82,-0.22 0.82,-0.24 0.82,-0.26C0.82,-0.42 0.67,-0.53 0.43,-0.53C0.19,-0.53 0.02,-0.42 0.02,-0.26C0.02,-0.09 0.2,0.02 0.47,0.02ZM0.27,-0.3C0.28,-0.36 0.34,-0.4 0.43,-0.4C0.51,-0.4 0.58,-0.36 0.58,-0.3L0.27,-0.3Z" style="fill-rule:nonzero;"/>
        </g>
        <g transform="matrix(266.666667,0,0,266.666667,2775.66206,437.60978)">
            <path d="M0.16,-0.57C0.24,-0.57 0.29,-0.62 0.29,-0.69C0.29,-0.76 0.24,-0.8 0.16,-0.8C0.09,-0.8 0.03,-0.76 0.03,-0.69C0.03,-0.62 0.09,-0.57 0.16,-0.57ZM0.04,0.23C0.19,0.23 0.28,0.15 0.28,0.03L0.28,-0.52L0.04,-0.52L0.04,0C0.04,0.05 0.01,0.08 -0.03,0.08C-0.06,0.08 -0.09,0.07 -0.11,0.07L-0.13,0.21C-0.08,0.22 -0.02,0.23 0.04,0.23Z" style="fill-rule:nonzero;"/>
        </g>
        <g transform="matrix(266.666667,0,0,266.666667,2862.595393,437.60978)">
            <path d="M0.28,-0L0.28,-0.15L0.35,-0.2L0.5,-0L0.77,-0L0.51,-0.32L0.77,-0.52L0.48,-0.52L0.28,-0.37L0.28,-0.37L0.28,-0.75L0.04,-0.75L0.04,-0L0.28,-0Z" style="fill-rule:nonzero;"/>
        </g>
        <g transform="matrix(266.666667,0,0,266.666667,3062.06206,437.60978)">
            <path d="M0.41,0.02C0.61,0.02 0.76,-0.04 0.76,-0.17C0.76,-0.27 0.67,-0.32 0.47,-0.33L0.35,-0.34C0.29,-0.35 0.26,-0.36 0.26,-0.38C0.26,-0.4 0.32,-0.41 0.4,-0.41C0.5,-0.41 0.59,-0.39 0.66,-0.36L0.71,-0.47C0.62,-0.51 0.51,-0.53 0.41,-0.53C0.2,-0.53 0.06,-0.48 0.06,-0.35C0.06,-0.25 0.14,-0.21 0.32,-0.2L0.45,-0.19C0.52,-0.18 0.55,-0.17 0.55,-0.15C0.55,-0.13 0.5,-0.11 0.39,-0.11C0.28,-0.11 0.14,-0.14 0.07,-0.19L0.01,-0.07C0.1,-0.02 0.26,0.02 0.41,0.02Z" style="fill-rule:nonzero;"/>
        </g>
    </g>
    <g transform="matrix(1,0,0,1,677.777778,341.666667)">
        <ellipse cx="1838.89" cy="1170.83" rx="144.44" ry="145.83"/>
    </g>
</svg>
