<?xml version="1.0" encoding="UTF-8" standalone="no"?>
<!DOCTYPE svg PUBLIC "-//W3C//DTD SVG 1.1//EN" "http://www.w3.org/Graphics/SVG/1.1/DTD/svg11.dtd">
<svg width="100%" height="100%" viewBox="0 0 3000 2000" version="1.1" xmlns="http://www.w3.org/2000/svg" xmlns:xlink="http://www.w3.org/1999/xlink" xml:space="preserve" xmlns:serif="http://www.serif.com/" style="fill-rule:evenodd;clip-rule:evenodd;stroke-linejoin:round;stroke-miterlimit:2;">
    <g transform="matrix(4.470374,0,0,4.470374,-4966.894196,-2746.644457)">
        <g transform="matrix(56.669378,0,0,56.669378,1183.937824,831.606218)">
            <path d="M0.42,0.02C0.55,0.02 0.64,-0.01 0.72,-0.08L0.67,-0.22C0.61,-0.17 0.56,-0.14 0.49,-0.14C0.42,-0.14 0.39,-0.18 0.39,-0.24L0.39,-0.37L0.7,-0.37L0.7,-0.52L0.39,-0.52L0.39,-0.7L0.15,-0.65L0.15,-0.52L0.01,-0.52L0.01,-0.37L0.15,-0.37L0.15,-0.18C0.15,-0.06 0.25,0.02 0.42,0.02Z" style="fill-rule:nonzero;"/>
        </g>
        <g transform="matrix(56.669378,0,0,56.669378,1225.363139,831.606218)">
            <path d="M0.47,0.02C0.61,0.02 0.74,-0.01 0.81,-0.06L0.75,-0.17C0.7,-0.14 0.59,-0.12 0.49,-0.12C0.39,-0.12 0.3,-0.14 0.27,-0.21L0.82,-0.21C0.82,-0.22 0.82,-0.24 0.82,-0.26C0.82,-0.42 0.67,-0.53 0.43,-0.53C0.19,-0.53 0.02,-0.42 0.02,-0.26C0.02,-0.09 0.2,0.02 0.47,0.02ZM0.27,-0.3C0.28,-0.36 0.34,-0.4 0.43,-0.4C0.51,-0.4 0.58,-0.36 0.58,-0.3L0.27,-0.3Z" style="fill-rule:nonzero;"/>
        </g>
        <g transform="matrix(56.669378,0,0,56.669378,1273.702118,831.606218)">
            <path d="M0.55,-0.53C0.42,-0.53 0.32,-0.48 0.27,-0.39L0.27,-0.39L0.25,-0.52L0.04,-0.52L0.04,-0L0.28,-0L0.28,-0.24C0.28,-0.34 0.34,-0.4 0.44,-0.4C0.53,-0.4 0.58,-0.35 0.58,-0.27L0.58,-0L0.81,-0L0.82,-0.29C0.82,-0.44 0.71,-0.53 0.55,-0.53Z" style="fill-rule:nonzero;"/>
        </g>
        <g transform="matrix(56.669378,0,0,56.669378,1321.644411,831.606218)">
            <path d="M0.33,0.02C0.46,0.02 0.57,-0.04 0.61,-0.14L0.61,-0.14L0.64,-0L0.85,-0L0.85,-0.75L0.61,-0.75L0.61,-0.38L0.6,-0.38C0.57,-0.47 0.45,-0.53 0.32,-0.53C0.14,-0.53 0.02,-0.42 0.02,-0.26C0.02,-0.09 0.14,0.02 0.33,0.02ZM0.44,-0.14C0.33,-0.14 0.26,-0.19 0.26,-0.26C0.26,-0.33 0.33,-0.38 0.44,-0.38C0.54,-0.38 0.61,-0.33 0.61,-0.26C0.61,-0.19 0.54,-0.14 0.44,-0.14Z" style="fill-rule:nonzero;"/>
        </g>
        <g transform="matrix(56.669378,0,0,56.669378,1371.85348,831.606218)">
            <path d="M0.47,0.02C0.61,0.02 0.74,-0.01 0.81,-0.06L0.75,-0.17C0.7,-0.14 0.59,-0.12 0.49,-0.12C0.39,-0.12 0.3,-0.14 0.27,-0.21L0.82,-0.21C0.82,-0.22 0.82,-0.24 0.82,-0.26C0.82,-0.42 0.67,-0.53 0.43,-0.53C0.19,-0.53 0.02,-0.42 0.02,-0.26C0.02,-0.09 0.2,0.02 0.47,0.02ZM0.27,-0.3C0.28,-0.36 0.34,-0.4 0.43,-0.4C0.51,-0.4 0.58,-0.36 0.58,-0.3L0.27,-0.3Z" style="fill-rule:nonzero;"/>
        </g>
        <g transform="matrix(56.669378,0,0,56.669378,1420.192459,831.606218)">
            <path d="M0.49,-0.53C0.4,-0.53 0.31,-0.48 0.27,-0.39L0.27,-0.39L0.24,-0.52L0.04,-0.52L0.04,-0L0.28,-0L0.28,-0.23C0.28,-0.33 0.32,-0.39 0.39,-0.39C0.43,-0.39 0.47,-0.34 0.47,-0.26L0.69,-0.3C0.68,-0.44 0.6,-0.53 0.49,-0.53Z" style="fill-rule:nonzero;"/>
        </g>
    </g>
    <g transform="matrix(4.470374,0,0,4.470374,-3748.009751,-2520.754385)">
        <g transform="matrix(56.669378,0,0,56.669378,1183.937824,831.606218)">
            <path d="M0.28,0.21L0.28,-0.14L0.28,-0.14C0.32,-0.04 0.43,0.02 0.56,0.02C0.74,0.02 0.86,-0.09 0.86,-0.26C0.86,-0.42 0.74,-0.53 0.56,-0.53C0.43,-0.53 0.32,-0.47 0.28,-0.38L0.28,-0.38L0.25,-0.52L0.04,-0.52L0.04,0.21L0.28,0.21ZM0.45,-0.14C0.34,-0.14 0.27,-0.19 0.27,-0.26C0.27,-0.33 0.34,-0.38 0.45,-0.38C0.55,-0.38 0.62,-0.33 0.62,-0.26C0.62,-0.19 0.55,-0.14 0.45,-0.14Z" style="fill-rule:nonzero;"/>
        </g>
        <g transform="matrix(56.669378,0,0,56.669378,1234.146892,831.606218)">
            <path d="M0.44,0.02C0.69,0.02 0.85,-0.09 0.85,-0.26C0.85,-0.42 0.69,-0.53 0.44,-0.53C0.19,-0.53 0.02,-0.42 0.02,-0.26C0.02,-0.09 0.19,0.02 0.44,0.02ZM0.44,-0.12C0.33,-0.12 0.26,-0.18 0.26,-0.26C0.26,-0.34 0.33,-0.39 0.44,-0.39C0.55,-0.39 0.61,-0.34 0.61,-0.26C0.61,-0.18 0.55,-0.12 0.44,-0.12Z" style="fill-rule:nonzero;"/>
        </g>
        <g transform="matrix(56.669378,0,0,56.669378,1283.789267,831.606218)">
            <path d="M0.49,-0.53C0.4,-0.53 0.31,-0.48 0.27,-0.39L0.27,-0.39L0.24,-0.52L0.04,-0.52L0.04,-0L0.28,-0L0.28,-0.23C0.28,-0.33 0.32,-0.39 0.39,-0.39C0.43,-0.39 0.47,-0.34 0.47,-0.26L0.69,-0.3C0.68,-0.44 0.6,-0.53 0.49,-0.53Z" style="fill-rule:nonzero;"/>
        </g>
        <g transform="matrix(56.669378,0,0,56.669378,1323.457831,831.606218)">
            <path d="M0.42,0.02C0.55,0.02 0.64,-0.01 0.72,-0.08L0.67,-0.22C0.61,-0.17 0.56,-0.14 0.49,-0.14C0.42,-0.14 0.39,-0.18 0.39,-0.24L0.39,-0.37L0.7,-0.37L0.7,-0.52L0.39,-0.52L0.39,-0.7L0.15,-0.65L0.15,-0.52L0.01,-0.52L0.01,-0.37L0.15,-0.37L0.15,-0.18C0.15,-0.06 0.25,0.02 0.42,0.02Z" style="fill-rule:nonzero;"/>
        </g>
        <g transform="matrix(56.669378,0,0,56.669378,1364.713138,831.606218)">
            <path d="M0.64,-0.74L0.62,-0.77L0.41,-0.63L0.43,-0.6L0.64,-0.74ZM0.28,0.02C0.42,0.02 0.54,-0.04 0.59,-0.12L0.59,-0.12L0.59,-0.11C0.6,-0.03 0.68,0.02 0.79,0.02C0.87,0.02 0.94,-0 0.98,-0.03L0.94,-0.14C0.92,-0.13 0.9,-0.12 0.88,-0.12C0.84,-0.12 0.83,-0.14 0.83,-0.16L0.83,-0.33C0.83,-0.46 0.68,-0.53 0.45,-0.53C0.29,-0.53 0.12,-0.49 0.02,-0.42L0.08,-0.3C0.18,-0.36 0.32,-0.4 0.45,-0.4C0.54,-0.4 0.59,-0.38 0.59,-0.36C0.59,-0.35 0.58,-0.34 0.56,-0.34L0.36,-0.32C0.14,-0.3 0.02,-0.23 0.02,-0.12C0.02,-0.04 0.12,0.02 0.28,0.02ZM0.37,-0.12C0.3,-0.12 0.26,-0.14 0.26,-0.17C0.26,-0.19 0.3,-0.21 0.38,-0.21L0.59,-0.23L0.59,-0.23C0.59,-0.17 0.5,-0.12 0.37,-0.12Z" style="fill-rule:nonzero;"/>
        </g>
        <g transform="matrix(56.669378,0,0,56.669378,1420.305798,831.606218)">
            <rect x="0.04" y="-0.75" width="0.24" height="0.75" style="fill-rule:nonzero;"/>
        </g>
    </g>
    <g transform="matrix(0.938861,0,0,0.392486,173.808543,1085.834762)">
        <path d="M2661.11,829.17C2661.11,909.65 2633.79,975 2600.15,975L1531.85,975C1498.21,975 1470.89,909.65 1470.89,829.17C1470.89,748.68 1498.21,683.33 1531.85,683.33L2600.15,683.33C2633.79,683.33 2661.11,748.68 2661.11,829.17ZM2650.02,829.17C2650.02,763.33 2627.67,709.87 2600.15,709.87L1531.85,709.87C1504.33,709.87 1481.98,763.33 1481.98,829.17C1481.98,895.01 1504.33,948.46 1531.85,948.46L2600.15,948.46C2627.67,948.46 2650.02,895.01 2650.02,829.17Z"/>
    </g>
    <g transform="matrix(1.042056,0,0,0.392486,-1202.690283,263.689762)">
        <path d="M2661.11,829.17C2661.11,909.65 2636.5,975 2606.18,975L1525.82,975C1495.5,975 1470.89,909.65 1470.89,829.17C1470.89,748.68 1495.5,683.33 1525.82,683.33L2606.18,683.33C2636.5,683.33 2661.11,748.68 2661.11,829.17ZM2651.11,829.17C2651.11,763.33 2630.98,709.87 2606.18,709.87L1525.82,709.87C1501.02,709.87 1480.89,763.33 1480.89,829.17C1480.89,895.01 1501.02,948.46 1525.82,948.46L2606.18,948.46C2630.98,948.46 2651.11,895.01 2651.11,829.17Z"/>
    </g>
    <g transform="matrix(1.042056,0,0,0.392486,-1202.690283,101.081429)">
        <path d="M2661.11,829.17C2661.11,909.65 2636.5,975 2606.18,975L1525.82,975C1495.5,975 1470.89,909.65 1470.89,829.17C1470.89,748.68 1495.5,683.33 1525.82,683.33L2606.18,683.33C2636.5,683.33 2661.11,748.68 2661.11,829.17ZM2651.11,829.17C2651.11,763.33 2630.98,709.87 2606.18,709.87L1525.82,709.87C1501.02,709.87 1480.89,763.33 1480.89,829.17C1480.89,895.01 1501.02,948.46 1525.82,948.46L2606.18,948.46C2630.98,948.46 2651.11,895.01 2651.11,829.17Z"/>
    </g>
    <g transform="matrix(1.042056,0,0,0.392486,-1202.690283,-60.893571)">
        <path d="M2661.11,829.17C2661.11,909.65 2636.5,975 2606.18,975L1525.82,975C1495.5,975 1470.89,909.65 1470.89,829.17C1470.89,748.68 1495.5,683.33 1525.82,683.33L2606.18,683.33C2636.5,683.33 2661.11,748.68 2661.11,829.17ZM2651.11,829.17C2651.11,763.33 2630.98,709.87 2606.18,709.87L1525.82,709.87C1501.02,709.87 1480.89,763.33 1480.89,829.17C1480.89,895.01 1501.02,948.46 1525.82,948.46L2606.18,948.46C2630.98,948.46 2651.11,895.01 2651.11,829.17Z"/>
    </g>
    <g transform="matrix(1.042056,0,0,0.392486,-1202.690283,-223.501905)">
        <path d="M2661.11,829.17C2661.11,909.65 2636.5,975 2606.18,975L1525.82,975C1495.5,975 1470.89,909.65 1470.89,829.17C1470.89,748.68 1495.5,683.33 1525.82,683.33L2606.18,683.33C2636.5,683.33 2661.11,748.68 2661.11,829.17ZM2651.11,829.17C2651.11,763.33 2630.98,709.87 2606.18,709.87L1525.82,709.87C1501.02,709.87 1480.89,763.33 1480.89,829.17C1480.89,895.01 1501.02,948.46 1525.82,948.46L2606.18,948.46C2630.98,948.46 2651.11,895.01 2651.11,829.17Z"/>
    </g>
    <g transform="matrix(0.938861,0,0,0.392486,173.808543,1404.718095)">
        <path d="M2661.11,829.17C2661.11,909.65 2633.79,975 2600.15,975L1531.85,975C1498.21,975 1470.89,909.65 1470.89,829.17C1470.89,748.68 1498.21,683.33 1531.85,683.33L2600.15,683.33C2633.79,683.33 2661.11,748.68 2661.11,829.17ZM2650.02,829.17C2650.02,763.33 2627.67,709.87 2600.15,709.87L1531.85,709.87C1504.33,709.87 1481.98,763.33 1481.98,829.17C1481.98,895.01 1504.33,948.46 1531.85,948.46L2600.15,948.46C2627.67,948.46 2650.02,895.01 2650.02,829.17Z"/>
    </g>
    <g transform="matrix(0.938861,0,0,0.392486,173.808543,1567.326429)">
        <path d="M2661.11,829.17C2661.11,909.65 2633.79,975 2600.15,975L1531.85,975C1498.21,975 1470.89,909.65 1470.89,829.17C1470.89,748.68 1498.21,683.33 1531.85,683.33L2600.15,683.33C2633.79,683.33 2661.11,748.68 2661.11,829.17ZM2650.02,829.17C2650.02,763.33 2627.67,709.87 2600.15,709.87L1531.85,709.87C1504.33,709.87 1481.98,763.33 1481.98,829.17C1481.98,895.01 1504.33,948.46 1531.85,948.46L2600.15,948.46C2627.67,948.46 2650.02,895.01 2650.02,829.17Z"/>
    </g>
    <g transform="matrix(0.938861,0,0,0.392486,173.808543,1242.743095)">
        <path d="M2661.11,829.17C2661.11,909.65 2633.79,975 2600.15,975L1531.85,975C1498.21,975 1470.89,909.65 1470.89,829.17C1470.89,748.68 1498.21,683.33 1531.85,683.33L2600.15,683.33C2633.79,683.33 2661.11,748.68 2661.11,829.17ZM2650.02,829.17C2650.02,763.33 2627.67,709.87 2600.15,709.87L1531.85,709.87C1504.33,709.87 1481.98,763.33 1481.98,829.17C1481.98,895.01 1504.33,948.46 1531.85,948.46L2600.15,948.46C2627.67,948.46 2650.02,895.01 2650.02,829.17Z"/>
    </g>
</svg>
