<?xml version="1.0" encoding="UTF-8" standalone="no"?>
<!DOCTYPE svg PUBLIC "-//W3C//DTD SVG 1.1//EN" "http://www.w3.org/Graphics/SVG/1.1/DTD/svg11.dtd">
<svg width="100%" height="100%" viewBox="0 0 3000 2000" version="1.1" xmlns="http://www.w3.org/2000/svg" xmlns:xlink="http://www.w3.org/1999/xlink" xml:space="preserve" xmlns:serif="http://www.serif.com/" style="fill-rule:evenodd;clip-rule:evenodd;stroke-linejoin:round;stroke-miterlimit:2;">
    <g transform="matrix(4.483365,0,0,5.876443,-5222.081156,-3767.64328)">
        <g transform="matrix(56.669378,0,0,56.669378,1179.007588,831.606218)">
            <path d="M0.49,-0L0.66,-0.33L0.66,-0.33L0.82,-0L1.07,-0L1.31,-0.52L1.06,-0.52L0.93,-0.18L0.93,-0.18L0.76,-0.52L0.55,-0.52L0.38,-0.19L0.38,-0.19L0.25,-0.52L0,-0.52L0.24,-0L0.49,-0Z" style="fill-rule:nonzero;"/>
        </g>
    </g>
    <g transform="matrix(4.933576,0,0,5.876443,-3232.609009,-3775.30261)">
        <g transform="matrix(56.669378,0,0,56.669378,1191.021496,831.606218)">
            <path d="M0.28,0.21L0.28,-0.14L0.28,-0.14C0.32,-0.04 0.43,0.02 0.56,0.02C0.74,0.02 0.86,-0.09 0.86,-0.26C0.86,-0.42 0.74,-0.53 0.56,-0.53C0.43,-0.53 0.32,-0.47 0.28,-0.38L0.28,-0.38L0.25,-0.52L0.04,-0.52L0.04,0.21L0.28,0.21ZM0.45,-0.14C0.34,-0.14 0.27,-0.19 0.27,-0.26C0.27,-0.33 0.34,-0.38 0.45,-0.38C0.55,-0.38 0.62,-0.33 0.62,-0.26C0.62,-0.19 0.55,-0.14 0.45,-0.14Z" style="fill-rule:nonzero;"/>
        </g>
    </g>
    <g transform="matrix(4.933576,0,0,5.876443,-4926.410515,-3767.809787)">
        <g transform="matrix(56.669378,0,0,56.669378,1196.291748,831.606218)">
            <path d="M0.49,-0.53C0.4,-0.53 0.31,-0.48 0.27,-0.39L0.27,-0.39L0.24,-0.52L0.04,-0.52L0.04,-0L0.28,-0L0.28,-0.23C0.28,-0.33 0.32,-0.39 0.39,-0.39C0.43,-0.39 0.47,-0.34 0.47,-0.26L0.69,-0.3C0.68,-0.44 0.6,-0.53 0.49,-0.53Z" style="fill-rule:nonzero;"/>
        </g>
    </g>
    <g transform="matrix(4.933576,0,0,5.876443,-4075.525709,-3775.30261)">
        <g transform="matrix(56.669378,0,0,56.669378,1195.413373,831.606218)">
            <path d="M0.42,0.02C0.55,0.02 0.64,-0.01 0.72,-0.08L0.67,-0.22C0.61,-0.17 0.56,-0.14 0.49,-0.14C0.42,-0.14 0.39,-0.18 0.39,-0.24L0.39,-0.37L0.7,-0.37L0.7,-0.52L0.39,-0.52L0.39,-0.7L0.15,-0.65L0.15,-0.52L0.01,-0.52L0.01,-0.37L0.15,-0.37L0.15,-0.18C0.15,-0.06 0.25,0.02 0.42,0.02Z" style="fill-rule:nonzero;"/>
        </g>
    </g>
    <g transform="matrix(1.248804,0,0,1.248804,-373.205742,-223.803828)">
        <path d="M627.78,486.11L627.78,1513.89C627.78,1593.61 563.05,1658.33 483.33,1658.33C403.61,1658.33 338.89,1593.61 338.89,1513.89L338.89,486.11C338.89,406.39 403.61,341.67 483.33,341.67C563.05,341.67 627.78,406.39 627.78,486.11ZM619.44,486.11C619.44,410.99 558.45,350.01 483.33,350.01C408.22,350.01 347.23,410.99 347.23,486.11L347.23,1513.89C347.23,1589.01 408.22,1649.99 483.33,1649.99C558.45,1649.99 619.44,1589.01 619.44,1513.89L619.44,486.11Z"/>
    </g>
    <g transform="matrix(1.248804,0,0,1.248804,2166.028708,-223.803828)">
        <path d="M627.78,486.11L627.78,1513.89C627.78,1593.61 563.05,1658.33 483.33,1658.33C403.61,1658.33 338.89,1593.61 338.89,1513.89L338.89,486.11C338.89,406.39 403.61,341.67 483.33,341.67C563.05,341.67 627.78,406.39 627.78,486.11ZM619.44,486.11C619.44,410.99 558.45,350.01 483.33,350.01C408.22,350.01 347.23,410.99 347.23,486.11L347.23,1513.89C347.23,1589.01 408.22,1649.99 483.33,1649.99C558.45,1649.99 619.44,1589.01 619.44,1513.89L619.44,486.11Z"/>
    </g>
    <g transform="matrix(1.248804,0,0,1.248804,473.205742,-223.803828)">
        <path d="M627.78,486.11L627.78,1513.89C627.78,1593.61 563.05,1658.33 483.33,1658.33C403.61,1658.33 338.89,1593.61 338.89,1513.89L338.89,486.11C338.89,406.39 403.61,341.67 483.33,341.67C563.05,341.67 627.78,406.39 627.78,486.11ZM619.44,486.11C619.44,410.99 558.45,350.01 483.33,350.01C408.22,350.01 347.23,410.99 347.23,486.11L347.23,1513.89C347.23,1589.01 408.22,1649.99 483.33,1649.99C558.45,1649.99 619.44,1589.01 619.44,1513.89L619.44,486.11Z"/>
    </g>
    <g transform="matrix(1.248804,0,0,1.248804,1319.617225,-223.803828)">
        <path d="M627.78,486.11L627.78,1513.89C627.78,1593.61 563.05,1658.33 483.33,1658.33C403.61,1658.33 338.89,1593.61 338.89,1513.89L338.89,486.11C338.89,406.39 403.61,341.67 483.33,341.67C563.05,341.67 627.78,406.39 627.78,486.11ZM619.44,486.11C619.44,410.99 558.45,350.01 483.33,350.01C408.22,350.01 347.23,410.99 347.23,486.11L347.23,1513.89C347.23,1589.01 408.22,1649.99 483.33,1649.99C558.45,1649.99 619.44,1589.01 619.44,1513.89L619.44,486.11Z"/>
    </g>
    <g transform="matrix(1.248804,0,0,1.248804,50,-223.803828)">
        <path d="M627.78,486.11L627.78,1513.89C627.78,1593.61 563.05,1658.33 483.33,1658.33C403.61,1658.33 338.89,1593.61 338.89,1513.89L338.89,486.11C338.89,406.39 403.61,341.67 483.33,341.67C563.05,341.67 627.78,406.39 627.78,486.11Z"/>
    </g>
    <g transform="matrix(1.248804,0,0,1.248804,896.411483,-223.803828)">
        <path d="M627.78,486.11L627.78,1513.89C627.78,1593.61 563.05,1658.33 483.33,1658.33C403.61,1658.33 338.89,1593.61 338.89,1513.89L338.89,486.11C338.89,406.39 403.61,341.67 483.33,341.67C563.05,341.67 627.78,406.39 627.78,486.11Z"/>
    </g>
    <g transform="matrix(1.248804,0,0,1.248804,1742.822967,-223.803828)">
        <path d="M627.78,486.11L627.78,1513.89C627.78,1593.61 563.05,1658.33 483.33,1658.33C403.61,1658.33 338.89,1593.61 338.89,1513.89L338.89,486.11C338.89,406.39 403.61,341.67 483.33,341.67C563.05,341.67 627.78,406.39 627.78,486.11Z"/>
    </g>
    <g transform="matrix(5.876443,0,0,5.876443,-6359.700756,-3767.64328)">
        <g transform="matrix(56.669378,0,0,56.669378,1184.221171,831.606218)">
            <path d="M0.16,-0.57C0.24,-0.57 0.29,-0.62 0.29,-0.69C0.29,-0.76 0.24,-0.8 0.16,-0.8C0.09,-0.8 0.03,-0.76 0.03,-0.69C0.03,-0.62 0.09,-0.57 0.16,-0.57ZM0.28,-0L0.28,-0.52L0.04,-0.52L0.04,-0L0.28,-0Z" style="fill:white;fill-rule:nonzero;"/>
        </g>
    </g>
    <g transform="matrix(5.876443,0,0,5.876443,-5512.623244,-3775.469117)">
        <g transform="matrix(56.669378,0,0,56.669378,1169.260455,831.606218)">
            <path d="M0.47,0.02C0.61,0.02 0.74,-0.01 0.81,-0.06L0.75,-0.17C0.7,-0.14 0.59,-0.12 0.49,-0.12C0.39,-0.12 0.3,-0.14 0.27,-0.21L0.82,-0.21C0.82,-0.22 0.82,-0.24 0.82,-0.26C0.82,-0.42 0.67,-0.53 0.43,-0.53C0.19,-0.53 0.02,-0.42 0.02,-0.26C0.02,-0.09 0.2,0.02 0.47,0.02ZM0.27,-0.3C0.28,-0.36 0.34,-0.4 0.43,-0.4C0.51,-0.4 0.58,-0.36 0.58,-0.3L0.27,-0.3Z" style="fill:white;fill-rule:nonzero;"/>
        </g>
    </g>
    <g transform="matrix(5.876443,0,0,5.876443,-4663.214631,-3767.64328)">
        <g transform="matrix(56.669378,0,0,56.669378,1165.633615,831.606218)">
            <path d="M0.28,0.02C0.42,0.02 0.54,-0.04 0.59,-0.12L0.59,-0.12L0.59,-0.11C0.6,-0.03 0.68,0.02 0.79,0.02C0.87,0.02 0.94,-0 0.98,-0.03L0.94,-0.14C0.92,-0.13 0.9,-0.12 0.88,-0.12C0.84,-0.12 0.83,-0.14 0.83,-0.16L0.83,-0.33C0.83,-0.46 0.68,-0.53 0.45,-0.53C0.29,-0.53 0.12,-0.49 0.02,-0.42L0.08,-0.3C0.18,-0.36 0.32,-0.4 0.45,-0.4C0.54,-0.4 0.59,-0.38 0.59,-0.36C0.59,-0.35 0.58,-0.34 0.56,-0.34L0.36,-0.32C0.14,-0.3 0.02,-0.23 0.02,-0.12C0.02,-0.04 0.12,0.02 0.28,0.02ZM0.37,-0.12C0.3,-0.12 0.26,-0.14 0.26,-0.17C0.26,-0.19 0.3,-0.21 0.38,-0.21L0.59,-0.23L0.59,-0.23C0.59,-0.17 0.5,-0.12 0.37,-0.12Z" style="fill:white;fill-rule:nonzero;"/>
        </g>
    </g>
</svg>
